<svg xmlns="http://www.w3.org/2000/svg" viewBox="0 0 512 512">
  <defs>
    <linearGradient id="g" x1="0" y1="0" x2="1" y2="1"><stop offset="0" stop-color="#FFC55C"/><stop offset="1" stop-color="#FF6FB0"/></linearGradient>
    <radialGradient id="bg" cx="50%" cy="0%" r="100%"><stop offset="0" stop-color="#5B3FB0"/><stop offset=".55" stop-color="#2A1E63"/><stop offset="1" stop-color="#14122B"/></radialGradient>
  </defs>
  <rect width="512" height="512" rx="112" fill="url(#bg)"/>
  <g fill="none" stroke="url(#g)" stroke-width="30" stroke-linecap="round" stroke-linejoin="round">
    <path d="M96 176a32 32 0 0 1 32-32h256a32 32 0 0 1 32 32v40a40 40 0 0 0 0 80v40a32 32 0 0 1-32 32H128a32 32 0 0 1-32-32v-40a40 40 0 0 0 0-80z"/>
    <path d="M296 144v224" stroke-dasharray="28 28"/>
  </g>
</svg>
